<mxfile host="app.diagrams.net" modified="2023-04-24T06:55:17.594Z" agent="Mozilla/5.0 (Macintosh; Intel Mac OS X 10_15_7) AppleWebKit/537.36 (KHTML, like Gecko) Chrome/112.0.0.0 Safari/537.36" version="21.2.1" etag="1cI2ZJE_ujzDjUCqN7tK" type="github">
  <diagram name="第 1 页" id="ou8i_lPcE9YPhWmq3G_J">
    <mxGraphModel>
      <root>
        <mxCell id="0" />
        <mxCell id="1" parent="0" />
      </root>
    </mxGraphModel>
  </diagram>
</mxfile>
